<svg width="24" height="24" viewBox="0 0 24 24" fill="none" xmlns="http://www.w3.org/2000/svg">
<path fill-rule="evenodd" clip-rule="evenodd" d="M4.51245 4.66664H3.71308C3.1608 4.66664 2.71308 4.21892 2.71308 3.66664C2.71308 3.11435 3.1608 2.66664 3.71308 2.66664H4.80155C4.80754 2.66664 4.81368 2.66664 4.81997 2.66663C4.90541 2.66659 5.01773 2.66653 5.11883 2.67427C5.23985 2.68353 5.41643 2.70762 5.60723 2.79482M4.51245 4.66664L4.86552 7.13808L5.74622 13.6113C5.7979 13.9913 5.84404 14.3305 5.90445 14.6114C5.96927 14.9127 6.06434 15.2197 6.25072 15.5131C6.52629 15.9469 6.92137 16.2919 7.3884 16.5065C7.70427 16.6516 8.02128 16.7044 8.32857 16.728C8.61498 16.75 8.95739 16.75 9.3409 16.75H16.5391C16.9038 16.75 17.2305 16.75 17.5047 16.7295C17.7995 16.7075 18.1033 16.6582 18.4085 16.5239C18.8613 16.3245 19.2497 16.0031 19.5303 15.5956C19.7194 15.3209 19.8246 15.0317 19.9014 14.7462C19.9729 14.4807 20.034 14.1598 20.1022 13.8015L21.2113 7.97849C21.2128 7.97085 21.2143 7.96306 21.2158 7.95514C21.2376 7.84075 21.2646 7.69964 21.2774 7.57368C21.292 7.43019 21.3019 7.19947 21.212 6.9449C21.1002 6.62832 20.8796 6.36175 20.5896 6.19269C20.3563 6.05673 20.1278 6.02336 19.9841 6.01084C19.858 5.99984 19.7144 5.99991 19.5979 5.99997C19.5898 5.99997 19.5819 5.99997 19.5741 5.99997H6.72323L6.45147 4.0976C6.45062 4.09168 6.44975 4.0856 6.44887 4.07937C6.43683 3.99478 6.421 3.88359 6.39904 3.7846C6.37276 3.6661 6.32394 3.4947 6.21063 3.31815C6.06386 3.08944 5.8544 2.90778 5.60723 2.79482M7.00121 7.99997L7.72339 13.308C7.78107 13.732 7.81743 13.9941 7.85973 14.1908C7.8994 14.3752 7.92987 14.4265 7.93894 14.4408C8.00783 14.5492 8.1066 14.6355 8.22336 14.6891C8.23874 14.6962 8.29364 14.7194 8.48173 14.7339C8.68228 14.7493 8.94696 14.75 9.37484 14.75H16.5064C16.914 14.75 17.165 14.7493 17.3557 14.7351C17.5338 14.7218 17.5868 14.7004 17.6026 14.6934C17.7158 14.6436 17.8129 14.5633 17.883 14.4614C17.8928 14.4472 17.9237 14.3991 17.9701 14.2266C18.0198 14.042 18.0674 13.7955 18.1436 13.3952L19.1713 7.99997H7.00121ZM7.71308 19.5C7.71308 18.4875 8.53389 17.6666 9.54641 17.6666C10.5589 17.6666 11.3797 18.4875 11.3797 19.5C11.3797 20.5125 10.5589 21.3333 9.54641 21.3333C8.53389 21.3333 7.71308 20.5125 7.71308 19.5ZM14.3797 19.5C14.3797 18.4875 15.2006 17.6666 16.2131 17.6666C17.2256 17.6666 18.0464 18.4875 18.0464 19.5C18.0464 20.5125 17.2256 21.3333 16.2131 21.3333C15.2006 21.3333 14.3797 20.5125 14.3797 19.5Z" fill="#A4B398"/>
</svg>
